<svg xmlns="http://www.w3.org/2000/svg" version="1.1" id="Layer_1" viewBox="0 0 840 873" width="840" height="873"><metadata><rdf:RDF xmlns:rdf="http://www.w3.org/1999/02/22-rdf-syntax-ns#" xmlns:dc="http://purl.org/dc/elements/1.1/"><rdf:Description><dc:creator>RealFaviconGenerator</dc:creator><dc:source>https://realfavicongenerator.net</dc:source></rdf:Description></rdf:RDF></metadata><defs>
    <style>
      .st0 {
        fill: #cd7389;
      }

      .st1 {
        fill: #fef5f9;
      }

      .st2 {
        fill: #231f20;
      }

      .st3 {
        fill: #a9883a;
      }

      .st4 {
        fill: #68c294;
      }

      .st5 {
        fill: #fff;
      }

      .st6 {
        fill: #ddaf38;
      }

      .st7 {
        fill: #c59b37;
      }

      .st8 {
        fill: #191310;
      }
    </style>
  </defs><g>
    <path class="st6" d="M677,70.68c-66.55,19.38-131.26,63.37-158.85,129.44l-13.14,35.84c-1,10.46-4.38,35.53-6.53,45.61l13.53,9.54,9.91,5.08c89.53-23.53,139.33-105.67,152.48-192.97"></path>
    <path class="st6" d="M405.17,0c-37.66,58.22-57.87,133.82-35.66,201.81l13.45,35.69c6.07,8.61,19.9,29.76,24.9,38.84l16.45-1.69,10.76-2.69c52.34-76.37,36.35-171.12-10.76-245.8"></path>
    <path class="st6" d="M837,240.8c-67.78-14.54-145.56-6.61-201.2,38.38l-28.59,25.23c-5.84,8.77-20.75,29.15-27.44,37.07l7.45,14.84,6.3,9.15c89.99,21.84,172.76-26.76,225.79-97.37"></path>
    <path class="st6" d="M175.99,56.3c-4.84,69.22,13.99,145.21,66.25,193.97l28.97,24.76c9.45,4.61,31.74,16.38,40.5,21.92l13.6-9.46,8.15-7.54c8.99-92.21-50.8-167.43-128.04-210.04"></path>
    <path class="st6" d="M1,310.56c49.8,48.22,120.04,82.75,190.98,74.06l37.58-6.31c9.61-4.31,32.97-13.77,42.88-16.92l1.54-16.46-.54-11.07c-64.79-66.22-160.7-68.83-243.01-37.07"></path>
    <path class="st6" d="M706.89,754.87c-67.94-13.92-135.95-52.45-168.85-115.98l-16.06-34.61c-1.84-10.38-7.22-35.07-10.22-44.99l12.76-10.61,9.45-5.85c91.15,16.15,147.48,93.98,167.69,179.89"></path>
    <path class="st6" d="M424.76,870.92c-42.65-54.68-69.4-128.21-53.26-197.89l10.22-36.76c5.3-9.08,17.22-31.38,21.37-40.84l16.52.23,10.99,1.69c58.87,71.53,51.26,167.28,10.91,245.8"></path>
    <path class="st6" d="M840,509.45c-61.25,32.53-138.26,46.15-204.04,18.07l-34.35-16.46c-8.07-6.77-27.9-22.38-36.51-28.15l3.07-16.3,3.61-10.54c80.62-45.61,173.53-21.46,243.78,31.92"></path>
    <path class="st6" d="M135.65,788.48c5.15-69.14,34.74-141.67,93.53-182.35l32.28-20.3c9.99-3.15,33.82-11.69,43.27-15.84l12.14,11.31,6.99,8.61c-4.38,92.52-74.39,158.36-156.93,189.35"></path>
    <path class="st6" d="M3.15,556.52c41.88-55.3,105.98-100.06,177.45-102.37l38.12.46c10.14,2.77,34.74,8.54,44.96,10.15l4.07,16.07,1.15,11.07c-53.95,75.29-148.33,92.52-234.55,73.68"></path>
    <path class="st3" d="M548.19,12.15c-55.49,41.61-100.52,105.6-103.14,177.12l.31,38.15c2.69,10.15,8.38,34.76,9.99,44.99l16.06,4.15,11.07,1.23c75.55-53.61,93.22-148.05,74.78-234.34"></path>
    <path class="st3" d="M286.66,18.46c-21.98,65.76-22.75,144.05,15.75,204.35l21.9,31.23c7.99,6.84,26.67,23.84,33.74,31.38l15.52-5.77,9.76-5.23c31.66-87.06-7.38-174.82-71.55-235.34"></path>
    <path class="st3" d="M750.24,151.82c-69.17,4.54-141.87,33.53-182.99,91.98l-20.6,32.15c-3.23,10-11.91,33.76-16.22,43.15l11.22,12.23,8.61,7.08c92.53-3.61,158.85-73.06,190.52-155.43"></path>
    <path class="st3" d="M838.69,371.47c-60.87-33.15-137.8-47.53-203.81-20.07l-34.51,16.15c-8.07,6.69-28.13,22.15-36.74,27.76l2.92,16.3,3.46,10.54c80.16,46.38,173.3,23.15,244.08-29.53"></path>
    <path class="st3" d="M809.03,636.66c-31.28-61.91-86.46-117.44-156.32-132.44l-37.58-6.38c-10.45.92-35.66,2.23-46.03,2l-6.84,15.07-3.15,10.69c39.58,83.75,129.42,117.59,217.65,114.44"></path>
    <path class="st3" d="M584.39,843.54c16.75-67.3,11.3-145.44-31.89-202.5l-24.29-29.38c-8.53-6.15-28.44-21.69-36.12-28.61l-15.06,6.92-9.38,6c-24.67,89.29,21.21,173.66,89.99,228.96"></path>
    <path class="st3" d="M271.21,873c55.72-41.22,101.29-104.9,104.37-176.35v-38.15c-2.69-10.15-8.15-34.84-9.61-45.07l-15.99-4.23-11.07-1.31c-75.85,53.07-94.22,147.36-76.39,233.8"></path>
    <path class="st3" d="M42.96,687.8c69.17,4.23,144.94-15.31,193.13-68.14l24.44-29.23c4.53-9.54,16.14-31.92,21.52-40.76l-9.53-13.54-7.61-8.08c-92.22-8.08-166.77,52.38-208.66,130.13"></path>
    <path class="st3" d="M81.31,172.74c20.52,66.3,65.56,130.28,131.96,156.74l35.97,12.54c10.45.85,35.58,3.77,45.73,5.77l9.3-13.69,4.84-10c-24.98-89.22-107.9-137.67-195.36-149.36"></path>
    <path class="st3" d="M0,444.61c61.02,32.84,138.03,46.84,203.89,19.15l34.43-16.3c8.07-6.77,27.97-22.23,36.66-28l-3-16.3-3.54-10.54c-80.31-45.99-173.38-22.38-243.93,30.69"></path>
    <path class="st7" d="M205.81,453.61c2.61-152.9,130.5-220.5,243.93-202.81,89.92,14,170.77,81.6,172.84,202.81-4.69,274.11-412.16,274.11-416.77,0h0Z"></path>
    <path class="st8" d="M219.18,453.61c4.38-256.65,385.8-256.57,390.18,0-4.38,256.65-385.8,256.57-390.18,0Z"></path>
  </g><g>
    <g>
      <path class="st2" d="M506.77,253.42c.15-.31.38-.54.54-.85.15,1.23.31,2.54.38,3.77-.31-1.08-.61-2-.92-2.92Z"></path>
      <path class="st2" d="M474.03,336.94c-7.15,5.92-14.37,12.07-22.67,16.23.38-1.23.85-2.54,1.38-3.85,7.45-3.92,14.06-8.31,21.29-12.38Z"></path>
      <path class="st2" d="M480.56,358.4c.08,1.77.23,3.61.46,5.54-.77,1.23-1.61,2.31-2.38,3.38-.92-8.77-.15-17.61.61-26.3.46,5.77,1,11.61,1.31,17.38h0Z"></path>
      <path class="st2" d="M526.06,267.41c2.31-1.46,4.84-2.61,7.38-3.69-.23.62-.46,1.15-.77,1.77-2.08.46-4.15,1-6.69,1.92h.08Z"></path>
      <g>
        <path class="st4" d="M577.16,199.81c-4.92-11.07-6.23-9-15.83-6,3.84,15.23-13.91,20.84-2.31,26.84l-27.59,29.15c.54.92.92,2,1,3.08,14.76-13.77,49.19-30.46,44.73-53.14v.08h0Z"></path>
        <path class="st4" d="M534.51,177.58c11.84-2.23,10.91,0,13.99,9.61-14.68,5.54-9.15,23.3-20.67,17.23l-8.15,39.38c-1.08,0-2.15.38-3.15,1,2.77-20-3.15-57.76,17.98-67.14v-.08h0Z"></path>
        <path class="st0" d="M627.27,305.72c17.29-44.68-66.55-54.38-93.84-41.99-14.14,31.23-36.04,72.6-54.8,103.67,2.15,22.15,17.29,28.76,37.43,23.3,23.52-5.92,42.04-30.76,29.9-54.45.15-.08.38-.23.54-.31,8.15,5.15,18.98,11.77,28.67,7.15,8.99-4.92,7.92-16.77,1.92-23.77.23-.15.46-.23.69-.38,16.91,3.77,41.12,5.69,49.42-13.23h.08-.01Z"></path>
        <path class="st0" d="M507.23,252.57c-15.29,24.84-44.96,68.83-55.87,100.6-18.98,10.08-32.28.54-39.04-18.07-8.68-23.46,1.38-52.53,28.44-55.91-9.22-3.77-21.44-8.84-23.29-19.84-1.15-10.61,9.76-16.23,19.14-15.15-8.76-7.84-16.83-17.23-20.83-28.46-6.76-20.15,15.22-39.3,34.58-31.69,24.44,9.54,53.41,42.15,56.87,68.6v-.08h0Z"></path>
        <path class="st4" d="M487.25,353.48c-6.15,14.38-25.98,36.46-35.51,24.69-16.22-25,44.11-103.14,55.03-124.75,6.99-10.31,6.38-17.07,18.91-15.23,4.84,1.31,14.76,10,10.76,17.77-11.3,30.38-33.35,66.53-49.19,97.44v.08h0Z"></path>
      </g>
    </g>
    <path class="st5" d="M436.22,232.73c-4.23-11.84-11.45-23.46-11.45-36.07-3.3,12.92,3.69,27.53,11.91,37.22-.15-.38-.31-.77-.54-1.15h.08Z"></path>
    <path class="st5" d="M437.22,270.18c-3.84-4.69-9.76-8.38-12.14-13.92h0c.31,7.69,7.53,13.15,14.06,15.92-.61-.69-1.23-1.31-1.84-2h-.08Z"></path>
    <path class="st5" d="M430.84,345.25c-4.38-10.15-12.53-19-14.76-29.76-.85,13,7.99,24.3,16.52,33.22-.61-1.15-1.15-2.31-1.77-3.46h.01Z"></path>
    <path class="st5" d="M618.59,302.72c-4.76,6.61-28.51,8.92-37.66,13.23,12.76-1.23,29.82-1.69,37.66-13.23Z"></path>
    <path class="st5" d="M570.4,336.33c-5.15-1.15-10.38-1.31-15.68-1.23,5.76,2.31,12.45,3.46,18.44,1.46-.92.08-1.92-.08-2.84-.23h.08Z"></path>
    <path class="st5" d="M530.9,371.01c-11.14,7.31-25.82,7.38-38.81,5.92,14.37,7,33.97,4.23,43.19-9.69-1.31,1.54-2.69,2.61-4.38,3.77Z"></path>
    <path class="st1" d="M515.07,250.96c1.31-2.69,2.54-5.54,4.07-8-4.46,4.61-6.84,10.92-8.76,17,1.61-2.92,3.23-5.92,4.69-9h0Z"></path>
    <path class="st1" d="M521.83,242.27c3.15.85,5.92,2.77,9.22,3.31-2.54-2.08-5.84-4.08-9.22-3.31Z"></path>
    <path class="st1" d="M476.95,361.32c-5.84,4.61-10.45,11.07-16.29,15.54,6.46-2.23,13.76-11.54,17.91-17-.54.46-1.08.92-1.61,1.38v.08h-.01Z"></path>
    <path class="st1" d="M534.97,196.5c-1.38,2.15-2.15,4.69-3.61,6.77,2-1.62,2.84-4.38,3.61-6.77h0Z"></path>
    <path class="st1" d="M537.51,192.74c-.92-.31-2.08,1.92-1.31,2.54.92.31,2.08-1.92,1.31-2.54Z"></path>
    <path class="st1" d="M558.1,214.19c.61-1.31,1.08-2.38,1.61-3.69-1.31,1.85-2.38,3.85-2.84,6.08.38-.85.85-1.62,1.23-2.38h0Z"></path>
    <path class="st1" d="M562.41,206.43c-.92-.31-2.08,1.92-1.31,2.54.92.31,2.08-1.92,1.31-2.54Z"></path>
  </g></svg>